<?xml version="1.0" encoding="UTF-8" standalone="no"?>
<!-- Created with Inkscape (http://www.inkscape.org/) -->

<svg
   width="109.28024mm"
   height="85.117279mm"
   viewBox="0 0 109.28024 85.117279"
   version="1.1"
   id="svg33904"
   inkscape:version="1.2.2 (b0a8486541, 2022-12-01)"
   sodipodi:docname="aixa_logo_3_jools_comments.svg"
   xml:space="preserve"
   xmlns:inkscape="http://www.inkscape.org/namespaces/inkscape"
   xmlns:sodipodi="http://sodipodi.sourceforge.net/DTD/sodipodi-0.dtd"
   xmlns="http://www.w3.org/2000/svg"
   xmlns:svg="http://www.w3.org/2000/svg"><sodipodi:namedview
     id="namedview33906"
     pagecolor="#ffffff"
     bordercolor="#000000"
     borderopacity="0.25"
     inkscape:showpageshadow="2"
     inkscape:pageopacity="0.0"
     inkscape:pagecheckerboard="0"
     inkscape:deskcolor="#d1d1d1"
     inkscape:document-units="mm"
     showgrid="false"
     inkscape:zoom="1.4142136"
     inkscape:cx="469.87246"
     inkscape:cy="1735.24"
     inkscape:window-width="2560"
     inkscape:window-height="1043"
     inkscape:window-x="0"
     inkscape:window-y="0"
     inkscape:window-maximized="1"
     inkscape:current-layer="layer1"
     showguides="false"><sodipodi:guide
       position="203.07524,241.57818"
       orientation="0,-1"
       id="guide35420"
       inkscape:locked="false" /><sodipodi:guide
       position="201.78333,120.85376"
       orientation="0,-1"
       id="guide35422"
       inkscape:locked="false" /><sodipodi:guide
       position="-283.66095,35.571106"
       orientation="0,-1"
       id="guide37082"
       inkscape:locked="false" /><sodipodi:guide
       position="61.130409,-125.86814"
       orientation="0,-1"
       id="guide37084"
       inkscape:locked="false" /><sodipodi:guide
       position="-423.55319,8.3996356"
       orientation="1,0"
       id="guide37148"
       inkscape:locked="false" /><sodipodi:guide
       position="312.62152,219.98518"
       orientation="1,0"
       id="guide37150"
       inkscape:locked="false" /><sodipodi:guide
       position="275.79431,253.24878"
       orientation="0,-1"
       id="guide428"
       inkscape:locked="false" /><sodipodi:guide
       position="310.65175,108.68344"
       orientation="0,-1"
       id="guide430"
       inkscape:locked="false" /><sodipodi:guide
       position="178.45022,153.64465"
       orientation="1,0"
       id="guide432"
       inkscape:locked="false" /><sodipodi:guide
       position="308.56957,251.96514"
       orientation="0,-1"
       id="guide434"
       inkscape:locked="false" /><sodipodi:guide
       position="288.34135,242.85562"
       orientation="0,-1"
       id="guide518"
       inkscape:locked="false" /><sodipodi:guide
       position="628.8925,422.2236"
       orientation="0,-1"
       id="guide1686"
       inkscape:locked="false" /><sodipodi:guide
       position="393.89769,181.02373"
       orientation="0,-1"
       id="guide2629"
       inkscape:locked="false" /></sodipodi:namedview><defs
     id="defs33901" /><g
     inkscape:label="Layer 1"
     inkscape:groupmode="layer"
     id="layer1"
     transform="translate(-25.863764,-357.57937)"><path
       style="fill:#04152a;fill-opacity:1;stroke-width:0.150442;stroke-linecap:round;stroke-linejoin:round"
       d="m 28.886247,405.77563 4.94872,18.10299"
       id="path1548-2-7-3" /><path
       id="path17382-0"
       style="fill:#051f3a;fill-opacity:1;stroke-width:0.140485;stroke-linecap:round;stroke-linejoin:round"
       inkscape:transform-center-x="-7.3309342e-06"
       inkscape:transform-center-y="8.534396e-06"
       d="m 81.830078,357.58594 c -12.29984,0.257 -24.748595,2.35035 -35.939453,7.63281 -6.930014,3.27859 -13.309888,8.35646 -16.82899,15.29283 -3.488016,6.96876 -3.835555,15.12108 -2.414376,22.67472 2.343323,12.25183 8.651596,23.57373 17.276825,32.51958 2.611416,2.75676 5.522969,5.51978 9.231837,6.66482 1.763852,0.57619 3.970406,0.47896 5.25136,-1.03132 1.170288,-1.24176 1.188999,-3.10626 0.721682,-4.65361 -0.411472,-1.82282 -1.18394,-3.88119 -0.123104,-5.63499 1.547569,-2.9473 4.827837,-4.64895 8.082295,-4.81554 3.826717,-0.41488 7.680556,-0.40315 11.545438,-0.48216 9.770857,-0.0739 19.673677,0.39651 29.284758,-1.71167 6.98136,-1.6524 13.75843,-4.59376 19.34137,-9.15182 4.1687,-3.5398 7.19082,-8.58379 7.7043,-14.08627 0.60856,-5.27323 -0.44369,-10.54419 -1.40393,-15.70863 -2.31957,-9.75175 -9.74167,-17.93557 -18.90164,-21.82246 -4.68489,-2.00042 -9.64988,-3.28186 -14.64398,-4.23535 -5.992916,-1.09308 -12.096567,-1.51672 -18.184392,-1.45094 z" /><path
       id="path37262-1-2-6"
       style="fill:#ffffff;fill-opacity:1;stroke-width:0.140485;stroke-linecap:round;stroke-linejoin:round"
       inkscape:transform-center-x="-7.3309342e-06"
       inkscape:transform-center-y="8.534396e-06"
       d="m 40.223987,372.0008 c -3.59192,2.68356 -6.65411,6.08808 -8.63008,9.94241 -3.29949,6.43608 -3.52548,14.67579 -2.053,21.65659 l -0.057,0.0144 c 3.18326,13.97182 9.70722,23.89628 18.56485,32.60297 1.87367,1.87009 5.81242,4.68981 8.03613,3.99763 0.457,-0.15563 0.89817,-0.71696 0.85682,-1.16769 -0.28085,-3.06147 -1.9029,-5.72375 -0.24657,-8.74886 3.22282,-5.88616 8.53517,-6.40886 12.47079,-6.6404 16.37061,-0.96313 30.79188,1.15859 43.360503,-3.37043 24.32529,-8.76546 20.54579,-22.49568 18.95384,-32.80061 -1.25157,-8.10166 -7.71228,-17.23809 -17.34965,-21.37862 -22.560873,-9.69288 -57.356343,-6.32964 -73.906613,5.89262 z"
       sodipodi:nodetypes="csccccsssssscc" /><g
       aria-label="Aixa"
       transform="rotate(-0.6010373,3638.3825,31461.226)"
       id="text12569-2-7-4-6-6-6-2-9-6-7-2-02-1"
       style="font-weight:500;font-size:43.4994px;font-family:Fredoka;-inkscape-font-specification:'Fredoka Medium';text-align:center;text-anchor:middle;fill:#051f3a;fill-opacity:1;stroke-width:5.43683"><path
         d="m 393.58198,367.3204 q 0.435,0.82649 0.435,1.47898 0.0435,0.60899 -0.348,1.08748 -0.39149,0.435 -1.30498,0.91349 -1.39198,0.65249 -2.17497,0.348 -0.73949,-0.3045 -1.39198,-1.69648 l -9.70037,-20.48822 -9.65686,20.48822 q -0.6525,1.34848 -1.43548,1.60948 -0.78299,0.30449 -2.17497,-0.3045 -0.86999,-0.43499 -1.30499,-0.91348 -0.39149,-0.4785 -0.34799,-1.13099 0.087,-0.69599 0.56549,-1.65298 l 11.96234,-24.92515 q 0.34799,-0.69599 1.00048,-1.08749 0.69599,-0.43499 1.43548,-0.43499 0.52199,0 0.95699,0.174 0.43499,0.17399 0.78299,0.52199 0.39149,0.34799 0.65249,0.86999 z m -22.22819,-4.21944 2.08797,-4.48044 h 11.35334 l 2.08798,4.48044 z"
         id="path3337-3-5"
         style="fill:#051f3a;fill-opacity:1" /><path
         d="m 399.49787,371.01785 q -1.17448,0 -1.73997,-0.3915 -0.56549,-0.34799 -0.69599,-0.91348 -0.1305,-0.60899 -0.1305,-1.34848 v -16.18178 q 0,-0.69599 0.1305,-1.26148 0.174,-0.609 0.69599,-0.95699 0.56549,-0.348 1.78347,-0.348 1.21799,0 1.73998,0.348 0.56549,0.34799 0.69599,0.95699 0.1305,0.60899 0.1305,1.34848 v 16.13828 q 0,0.73948 -0.1305,1.34848 -0.1305,0.56549 -0.69599,0.91348 -0.52199,0.348 -1.78348,0.348 z m 0,-25.62115 q -1.26148,0 -1.87047,-0.34799 -0.56549,-0.3915 -0.73949,-1.04399 -0.1305,-0.65249 -0.1305,-1.43548 0,-0.82649 0.1305,-1.43548 0.174,-0.60899 0.78299,-0.95699 0.60899,-0.39149 1.87047,-0.39149 1.30499,0 1.87048,0.39149 0.56549,0.3915 0.73949,1.04399 0.174,0.60899 0.174,1.43548 0,0.73949 -0.174,1.39198 -0.174,0.65249 -0.73949,1.00049 -0.56549,0.34799 -1.91398,0.34799 z"
         id="path3339-7-5"
         style="fill:#051f3a;fill-opacity:1" /><path
         d="m 424.33602,350.18164 q 0.82649,0.73949 1.04399,1.30498 0.261,0.56549 0,1.17448 -0.2175,0.56549 -0.95699,1.39198 l -13.78931,15.96428 q -0.73949,0.78299 -1.30498,1.04399 -0.56549,0.30449 -1.13098,0.087 -0.522,-0.2175 -1.26149,-0.82649 -0.73949,-0.73949 -1.00048,-1.26148 -0.261,-0.5655 0,-1.17449 0.30449,-0.60899 1.00048,-1.39198 l 13.78931,-15.96428 q 1.08749,-1.17448 1.78348,-1.26148 0.73949,-0.087 1.82697,0.91349 z m -17.35626,0 q 0.73949,-0.65249 1.26149,-0.82649 0.56549,-0.174 1.08748,0.1305 0.56549,0.26099 1.26148,1.04398 l 13.78931,15.96428 q 0.73949,0.78299 1.00049,1.39198 0.261,0.60899 0.0435,1.17449 -0.2175,0.52199 -1.04399,1.26148 -0.73949,0.65249 -1.30498,0.82649 -0.52199,0.21749 -1.08748,-0.087 -0.522,-0.261 -1.30499,-1.04399 l -13.78931,-15.96428 q -0.69599,-0.78299 -0.95698,-1.39198 -0.261,-0.60899 0,-1.17448 0.26099,-0.60899 1.04398,-1.30498 z"
         id="path3341-5-4"
         style="fill:#051f3a;fill-opacity:1" /><path
         d="m 445.52024,370.93085 q -1.26148,0 -1.87048,-0.47849 -0.60899,-0.4785 -0.60899,-1.30499 l 0.3045,-1.43548 q -0.348,0.5655 -1.17449,1.34849 -0.82648,0.73949 -2.17497,1.34848 -1.34848,0.56549 -3.26245,0.56549 -2.04447,0 -3.87145,-0.82649 -1.78347,-0.86999 -3.17545,-2.34897 -1.34848,-1.52248 -2.17497,-3.43645 -0.78299,-1.95747 -0.78299,-4.17594 0,-2.13147 0.78299,-4.00195 0.82649,-1.91397 2.21847,-3.39295 1.39198,-1.47898 3.17545,-2.30547 1.82698,-0.86999 3.82795,-0.86999 1.78347,0 3.00146,0.4785 1.26148,0.47849 2.13147,1.21798 0.86999,0.69599 1.43548,1.47898 l -0.261,-1.26148 q 0,-0.95699 0.60899,-1.43548 0.609,-0.522 1.91398,-0.522 1.21798,0 1.73997,0.3915 0.522,0.34799 0.6525,1.00049 0.13049,0.60899 0.13049,1.39198 v 15.92078 q 0,0.73949 -0.13049,1.34848 -0.1305,0.60899 -0.696,0.95699 -0.52199,0.34799 -1.73997,0.34799 z m -8.00389,-5.04593 q 1.47898,0 2.65346,-0.73949 1.17449,-0.73949 1.87048,-2.00097 0.73949,-1.30498 0.73949,-2.87096 0,-1.69648 -0.73949,-2.95796 -0.73949,-1.26148 -1.95748,-1.95748 -1.17448,-0.73948 -2.65346,-0.73948 -1.60948,0 -2.87096,0.78298 -1.26148,0.73949 -2.00097,2.04448 -0.69599,1.26148 -0.69599,2.87096 0,1.56598 0.73949,2.82746 0.73949,1.26148 2.00097,2.00097 1.30498,0.73949 2.91446,0.73949 z"
         id="path3343-9-7"
         style="fill:#051f3a;fill-opacity:1" /></g></g></svg>
