<?xml version="1.0" encoding="UTF-8" standalone="no"?>
<!-- Created with Inkscape (http://www.inkscape.org/) -->

<svg
   width="109.28049mm"
   height="85.117279mm"
   viewBox="0 0 109.28049 85.117279"
   version="1.1"
   id="svg33904"
   inkscape:version="1.2.2 (b0a8486541, 2022-12-01)"
   sodipodi:docname="aixa_logo_3_jools_comments.svg"
   xml:space="preserve"
   xmlns:inkscape="http://www.inkscape.org/namespaces/inkscape"
   xmlns:sodipodi="http://sodipodi.sourceforge.net/DTD/sodipodi-0.dtd"
   xmlns="http://www.w3.org/2000/svg"
   xmlns:svg="http://www.w3.org/2000/svg"><sodipodi:namedview
     id="namedview33906"
     pagecolor="#ffffff"
     bordercolor="#000000"
     borderopacity="0.25"
     inkscape:showpageshadow="2"
     inkscape:pageopacity="0.0"
     inkscape:pagecheckerboard="0"
     inkscape:deskcolor="#d1d1d1"
     inkscape:document-units="mm"
     showgrid="false"
     inkscape:zoom="1.4142136"
     inkscape:cx="469.87246"
     inkscape:cy="1735.24"
     inkscape:window-width="2560"
     inkscape:window-height="1043"
     inkscape:window-x="0"
     inkscape:window-y="0"
     inkscape:window-maximized="1"
     inkscape:current-layer="layer1"
     showguides="false"><sodipodi:guide
       position="89.555284,241.52285"
       orientation="0,-1"
       id="guide35420"
       inkscape:locked="false" /><sodipodi:guide
       position="88.263374,120.79843"
       orientation="0,-1"
       id="guide35422"
       inkscape:locked="false" /><sodipodi:guide
       position="-397.1809,35.515777"
       orientation="0,-1"
       id="guide37082"
       inkscape:locked="false" /><sodipodi:guide
       position="-52.389544,-125.92346"
       orientation="0,-1"
       id="guide37084"
       inkscape:locked="false" /><sodipodi:guide
       position="-537.07314,8.3443072"
       orientation="1,0"
       id="guide37148"
       inkscape:locked="false" /><sodipodi:guide
       position="199.10156,219.92985"
       orientation="1,0"
       id="guide37150"
       inkscape:locked="false" /><sodipodi:guide
       position="162.27435,253.19345"
       orientation="0,-1"
       id="guide428"
       inkscape:locked="false" /><sodipodi:guide
       position="197.13179,108.62812"
       orientation="0,-1"
       id="guide430"
       inkscape:locked="false" /><sodipodi:guide
       position="64.930264,153.58932"
       orientation="1,0"
       id="guide432"
       inkscape:locked="false" /><sodipodi:guide
       position="195.04961,251.90981"
       orientation="0,-1"
       id="guide434"
       inkscape:locked="false" /><sodipodi:guide
       position="174.82139,242.80029"
       orientation="0,-1"
       id="guide518"
       inkscape:locked="false" /><sodipodi:guide
       position="515.37255,422.16827"
       orientation="0,-1"
       id="guide1686"
       inkscape:locked="false" /><sodipodi:guide
       position="280.37774,180.9684"
       orientation="0,-1"
       id="guide2629"
       inkscape:locked="false" /></sodipodi:namedview><defs
     id="defs33901" /><g
     inkscape:label="Layer 1"
     inkscape:groupmode="layer"
     id="layer1"
     transform="translate(-139.38372,-357.52404)"><path
       style="fill:#04152a;fill-opacity:1;stroke-width:0.150442;stroke-linecap:round;stroke-linejoin:round"
       d="m 141.74195,404.01808 3.39493,16.74608"
       id="path1546-6-8"
       inkscape:export-filename="aixa_logo_web.svg"
       inkscape:export-xdpi="231.86133"
       inkscape:export-ydpi="231.86133" /><path
       style="fill:#04152a;fill-opacity:1;stroke-width:0.150442;stroke-linecap:round;stroke-linejoin:round"
       d="m 142.40601,405.71937 4.94872,18.10299"
       id="path1548-2-7" /><path
       style="fill:#04152a;fill-opacity:1;stroke-width:0.150442;stroke-linecap:round;stroke-linejoin:round"
       d="m 141.34234,401.33304 4.49124,16.76156"
       id="path1550-9-9" /><path
       id="path17382"
       style="fill:#ffffff;fill-opacity:1;stroke-width:0.140485;stroke-linecap:round;stroke-linejoin:round"
       inkscape:transform-center-x="-7.3309342e-06"
       inkscape:transform-center-y="8.534396e-06"
       d="m 195.34961,357.53125 c -12.30006,0.25281 -24.7483,2.3501 -35.93945,7.63086 -6.89934,3.26706 -13.25649,8.31137 -16.78352,15.20572 -3.50183,6.92395 -3.87805,15.03868 -2.49766,22.56543 2.3097,12.29217 8.60796,23.66265 17.24552,32.6437 2.6542,2.80476 5.61157,5.63567 9.39969,6.76617 1.74079,0.54817 3.89572,0.42008 5.15266,-1.05841 1.17223,-1.24149 1.18989,-3.10788 0.72164,-4.65559 -0.41181,-1.82272 -1.18397,-3.88102 -0.1231,-5.63499 1.54912,-2.94562 4.82763,-4.64988 8.0824,-4.81462 3.92526,-0.42213 7.8811,-0.40932 11.84533,-0.48432 9.67141,-0.0651 19.47272,0.37752 28.98476,-1.71043 6.98139,-1.65206 13.75907,-4.59294 19.34137,-9.15182 4.14376,-3.51816 7.15757,-8.52023 7.69351,-13.98686 0.63323,-5.30528 -0.42687,-10.61139 -1.39314,-15.80804 -2.31962,-9.75203 -9.74166,-17.93504 -18.90164,-21.82246 -4.74775,-2.02202 -9.77802,-3.32081 -14.84101,-4.26969 -5.92979,-1.06618 -11.96613,-1.48329 -17.98736,-1.41465 z" /><path
       id="path37262-1-2"
       style="fill:#051f3a;fill-opacity:1;stroke-width:0.140485;stroke-linecap:round;stroke-linejoin:round"
       inkscape:transform-center-x="-7.3309342e-06"
       inkscape:transform-center-y="8.534396e-06"
       d="m 153.74375,371.94454 c -3.59192,2.68356 -6.65411,6.08808 -8.63008,9.94241 -3.29949,6.43608 -3.52548,14.67579 -2.053,21.65659 l 0.001,0.006 c 3.18326,13.97182 9.64843,23.90433 18.50606,32.61102 1.87367,1.87009 5.81242,4.68981 8.03613,3.99763 0.457,-0.15563 0.89817,-0.71696 0.85682,-1.16769 -0.28085,-3.06147 -1.9029,-5.72375 -0.24657,-8.74886 3.22282,-5.88616 8.53517,-6.40886 12.47079,-6.6404 16.37061,-0.96313 30.79188,1.15859 43.3605,-3.37043 24.32529,-8.76546 20.54579,-22.49568 18.95384,-32.80061 -1.25157,-8.10166 -7.71228,-17.23809 -17.34965,-21.37862 -22.56087,-9.69288 -57.35634,-6.32964 -73.90661,5.89262 z"
       sodipodi:nodetypes="csccccsssssscc" /><g
       aria-label="Aixa"
       transform="rotate(-0.6010373,3689.7798,20639.667)"
       id="text12569-2-7-4-6-6-6-2-9-6-7-2-02"
       style="font-weight:500;font-size:43.4994px;font-family:Fredoka;-inkscape-font-specification:'Fredoka Medium';text-align:center;text-anchor:middle;fill:#ffffff;stroke-width:5.43683"><path
         d="m 393.58198,367.3204 q 0.435,0.82649 0.435,1.47898 0.0435,0.60899 -0.348,1.08748 -0.39149,0.435 -1.30498,0.91349 -1.39198,0.65249 -2.17497,0.348 -0.73949,-0.3045 -1.39198,-1.69648 l -9.70037,-20.48822 -9.65686,20.48822 q -0.6525,1.34848 -1.43548,1.60948 -0.78299,0.30449 -2.17497,-0.3045 -0.86999,-0.43499 -1.30499,-0.91348 -0.39149,-0.4785 -0.34799,-1.13099 0.087,-0.69599 0.56549,-1.65298 l 11.96234,-24.92515 q 0.34799,-0.69599 1.00048,-1.08749 0.69599,-0.43499 1.43548,-0.43499 0.52199,0 0.95699,0.174 0.43499,0.17399 0.78299,0.52199 0.39149,0.34799 0.65249,0.86999 z m -22.22819,-4.21944 2.08797,-4.48044 h 11.35334 l 2.08798,4.48044 z"
         id="path3337-3" /><path
         d="m 399.49787,371.01785 q -1.17448,0 -1.73997,-0.3915 -0.56549,-0.34799 -0.69599,-0.91348 -0.1305,-0.60899 -0.1305,-1.34848 v -16.18178 q 0,-0.69599 0.1305,-1.26148 0.174,-0.609 0.69599,-0.95699 0.56549,-0.348 1.78347,-0.348 1.21799,0 1.73998,0.348 0.56549,0.34799 0.69599,0.95699 0.1305,0.60899 0.1305,1.34848 v 16.13828 q 0,0.73948 -0.1305,1.34848 -0.1305,0.56549 -0.69599,0.91348 -0.52199,0.348 -1.78348,0.348 z m 0,-25.62115 q -1.26148,0 -1.87047,-0.34799 -0.56549,-0.3915 -0.73949,-1.04399 -0.1305,-0.65249 -0.1305,-1.43548 0,-0.82649 0.1305,-1.43548 0.174,-0.60899 0.78299,-0.95699 0.60899,-0.39149 1.87047,-0.39149 1.30499,0 1.87048,0.39149 0.56549,0.3915 0.73949,1.04399 0.174,0.60899 0.174,1.43548 0,0.73949 -0.174,1.39198 -0.174,0.65249 -0.73949,1.00049 -0.56549,0.34799 -1.91398,0.34799 z"
         id="path3339-7" /><path
         d="m 424.33602,350.18164 q 0.82649,0.73949 1.04399,1.30498 0.261,0.56549 0,1.17448 -0.2175,0.56549 -0.95699,1.39198 l -13.78931,15.96428 q -0.73949,0.78299 -1.30498,1.04399 -0.56549,0.30449 -1.13098,0.087 -0.522,-0.2175 -1.26149,-0.82649 -0.73949,-0.73949 -1.00048,-1.26148 -0.261,-0.5655 0,-1.17449 0.30449,-0.60899 1.00048,-1.39198 l 13.78931,-15.96428 q 1.08749,-1.17448 1.78348,-1.26148 0.73949,-0.087 1.82697,0.91349 z m -17.35626,0 q 0.73949,-0.65249 1.26149,-0.82649 0.56549,-0.174 1.08748,0.1305 0.56549,0.26099 1.26148,1.04398 l 13.78931,15.96428 q 0.73949,0.78299 1.00049,1.39198 0.261,0.60899 0.0435,1.17449 -0.2175,0.52199 -1.04399,1.26148 -0.73949,0.65249 -1.30498,0.82649 -0.52199,0.21749 -1.08748,-0.087 -0.522,-0.261 -1.30499,-1.04399 l -13.78931,-15.96428 q -0.69599,-0.78299 -0.95698,-1.39198 -0.261,-0.60899 0,-1.17448 0.26099,-0.60899 1.04398,-1.30498 z"
         id="path3341-5" /><path
         d="m 445.52024,370.93085 q -1.26148,0 -1.87048,-0.47849 -0.60899,-0.4785 -0.60899,-1.30499 l 0.3045,-1.43548 q -0.348,0.5655 -1.17449,1.34849 -0.82648,0.73949 -2.17497,1.34848 -1.34848,0.56549 -3.26245,0.56549 -2.04447,0 -3.87145,-0.82649 -1.78347,-0.86999 -3.17545,-2.34897 -1.34848,-1.52248 -2.17497,-3.43645 -0.78299,-1.95747 -0.78299,-4.17594 0,-2.13147 0.78299,-4.00195 0.82649,-1.91397 2.21847,-3.39295 1.39198,-1.47898 3.17545,-2.30547 1.82698,-0.86999 3.82795,-0.86999 1.78347,0 3.00146,0.4785 1.26148,0.47849 2.13147,1.21798 0.86999,0.69599 1.43548,1.47898 l -0.261,-1.26148 q 0,-0.95699 0.60899,-1.43548 0.609,-0.522 1.91398,-0.522 1.21798,0 1.73997,0.3915 0.522,0.34799 0.6525,1.00049 0.13049,0.60899 0.13049,1.39198 v 15.92078 q 0,0.73949 -0.13049,1.34848 -0.1305,0.60899 -0.696,0.95699 -0.52199,0.34799 -1.73997,0.34799 z m -8.00389,-5.04593 q 1.47898,0 2.65346,-0.73949 1.17449,-0.73949 1.87048,-2.00097 0.73949,-1.30498 0.73949,-2.87096 0,-1.69648 -0.73949,-2.95796 -0.73949,-1.26148 -1.95748,-1.95748 -1.17448,-0.73948 -2.65346,-0.73948 -1.60948,0 -2.87096,0.78298 -1.26148,0.73949 -2.00097,2.04448 -0.69599,1.26148 -0.69599,2.87096 0,1.56598 0.73949,2.82746 0.73949,1.26148 2.00097,2.00097 1.30498,0.73949 2.91446,0.73949 z"
         id="path3343-9" /></g></g></svg>
